<mxfile host="app.diagrams.net" agent="Mozilla/5.0 (Macintosh; Intel Mac OS X 10_15_7) AppleWebKit/537.36 (KHTML, like Gecko) Chrome/133.0.0.0 Safari/537.36" version="26.0.16">
  <diagram id="Ht1M8jgEwFfnCIfOTk4-" name="Page-1">
    <mxGraphModel dx="1218" dy="588" grid="1" gridSize="10" guides="1" tooltips="1" connect="1" arrows="1" fold="1" page="1" pageScale="1" pageWidth="1169" pageHeight="827" math="0" shadow="0">
      <root>
        <mxCell id="0" />
        <mxCell id="1" parent="0" />
        <mxCell id="AC03XL_UMfXiCvVsRz3B-13" style="edgeStyle=orthogonalEdgeStyle;rounded=0;orthogonalLoop=1;jettySize=auto;html=1;entryX=0;entryY=0.5;entryDx=0;entryDy=0;entryPerimeter=0;" edge="1" parent="1" source="AC03XL_UMfXiCvVsRz3B-2" target="AC03XL_UMfXiCvVsRz3B-3">
          <mxGeometry relative="1" as="geometry">
            <mxPoint x="390" y="282.4000000000001" as="targetPoint" />
            <Array as="points" />
          </mxGeometry>
        </mxCell>
        <mxCell id="AC03XL_UMfXiCvVsRz3B-21" value="Trigger: &quot;s3:ObjectCreated:Put&quot;" style="edgeLabel;html=1;align=center;verticalAlign=middle;resizable=0;points=[];" vertex="1" connectable="0" parent="AC03XL_UMfXiCvVsRz3B-13">
          <mxGeometry x="0.4912" y="4" relative="1" as="geometry">
            <mxPoint x="-59" y="4" as="offset" />
          </mxGeometry>
        </mxCell>
        <mxCell id="AC03XL_UMfXiCvVsRz3B-2" value="S3 Bucket&lt;div&gt;hw04-zhh20013-1&lt;/div&gt;&lt;div&gt;&lt;br&gt;&lt;/div&gt;" style="sketch=0;outlineConnect=0;fontColor=#232F3E;gradientColor=none;fillColor=#7AA116;strokeColor=none;dashed=0;verticalLabelPosition=bottom;verticalAlign=top;align=center;html=1;fontSize=12;fontStyle=0;aspect=fixed;pointerEvents=1;shape=mxgraph.aws4.bucket;" vertex="1" parent="1">
          <mxGeometry x="110" y="252.4" width="57.69" height="60" as="geometry" />
        </mxCell>
        <mxCell id="AC03XL_UMfXiCvVsRz3B-24" style="edgeStyle=orthogonalEdgeStyle;rounded=0;orthogonalLoop=1;jettySize=auto;html=1;exitX=1;exitY=0.5;exitDx=0;exitDy=0;exitPerimeter=0;entryX=0;entryY=0.5;entryDx=0;entryDy=0;entryPerimeter=0;" edge="1" parent="1" source="AC03XL_UMfXiCvVsRz3B-3" target="AC03XL_UMfXiCvVsRz3B-4">
          <mxGeometry relative="1" as="geometry">
            <mxPoint x="560" y="140" as="targetPoint" />
            <Array as="points">
              <mxPoint x="508" y="280" />
              <mxPoint x="560" y="280" />
              <mxPoint x="560" y="139" />
            </Array>
          </mxGeometry>
        </mxCell>
        <mxCell id="AC03XL_UMfXiCvVsRz3B-30" value="Insert Record" style="edgeLabel;html=1;align=center;verticalAlign=middle;resizable=0;points=[];" vertex="1" connectable="0" parent="AC03XL_UMfXiCvVsRz3B-24">
          <mxGeometry x="0.7038" relative="1" as="geometry">
            <mxPoint x="-25" as="offset" />
          </mxGeometry>
        </mxCell>
        <mxCell id="AC03XL_UMfXiCvVsRz3B-3" value="Lambda Function&lt;div&gt;hw04-zhh20013-1&lt;/div&gt;" style="sketch=0;points=[[0,0,0],[0.25,0,0],[0.5,0,0],[0.75,0,0],[1,0,0],[0,1,0],[0.25,1,0],[0.5,1,0],[0.75,1,0],[1,1,0],[0,0.25,0],[0,0.5,0],[0,0.75,0],[1,0.25,0],[1,0.5,0],[1,0.75,0]];outlineConnect=0;fontColor=#232F3E;fillColor=#ED7100;strokeColor=#ffffff;dashed=0;verticalLabelPosition=bottom;verticalAlign=top;align=center;html=1;fontSize=12;fontStyle=0;aspect=fixed;shape=mxgraph.aws4.resourceIcon;resIcon=mxgraph.aws4.lambda;" vertex="1" parent="1">
          <mxGeometry x="460" y="243.4" width="78" height="78" as="geometry" />
        </mxCell>
        <mxCell id="AC03XL_UMfXiCvVsRz3B-4" value="DynamoDB Table&lt;div&gt;hw04-zhh20013-1&lt;/div&gt;&lt;div&gt;&lt;br&gt;&lt;/div&gt;&lt;div&gt;&lt;br&gt;&lt;/div&gt;" style="sketch=0;points=[[0,0,0],[0.25,0,0],[0.5,0,0],[0.75,0,0],[1,0,0],[0,1,0],[0.25,1,0],[0.5,1,0],[0.75,1,0],[1,1,0],[0,0.25,0],[0,0.5,0],[0,0.75,0],[1,0.25,0],[1,0.5,0],[1,0.75,0]];outlineConnect=0;fontColor=#232F3E;fillColor=#C925D1;strokeColor=#ffffff;dashed=0;verticalLabelPosition=bottom;verticalAlign=top;align=center;html=1;fontSize=12;fontStyle=0;aspect=fixed;shape=mxgraph.aws4.resourceIcon;resIcon=mxgraph.aws4.dynamodb;" vertex="1" parent="1">
          <mxGeometry x="670" y="100" width="78" height="78" as="geometry" />
        </mxCell>
        <mxCell id="AC03XL_UMfXiCvVsRz3B-5" value="CloudWatch Logs" style="sketch=0;points=[[0,0,0],[0.25,0,0],[0.5,0,0],[0.75,0,0],[1,0,0],[0,1,0],[0.25,1,0],[0.5,1,0],[0.75,1,0],[1,1,0],[0,0.25,0],[0,0.5,0],[0,0.75,0],[1,0.25,0],[1,0.5,0],[1,0.75,0]];points=[[0,0,0],[0.25,0,0],[0.5,0,0],[0.75,0,0],[1,0,0],[0,1,0],[0.25,1,0],[0.5,1,0],[0.75,1,0],[1,1,0],[0,0.25,0],[0,0.5,0],[0,0.75,0],[1,0.25,0],[1,0.5,0],[1,0.75,0]];outlineConnect=0;fontColor=#232F3E;fillColor=#E7157B;strokeColor=#ffffff;dashed=0;verticalLabelPosition=bottom;verticalAlign=top;align=center;html=1;fontSize=12;fontStyle=0;aspect=fixed;shape=mxgraph.aws4.resourceIcon;resIcon=mxgraph.aws4.cloudwatch_2;" vertex="1" parent="1">
          <mxGeometry x="871" y="310" width="78" height="78" as="geometry" />
        </mxCell>
        <mxCell id="AC03XL_UMfXiCvVsRz3B-42" style="edgeStyle=orthogonalEdgeStyle;rounded=0;orthogonalLoop=1;jettySize=auto;html=1;exitX=1;exitY=0.5;exitDx=0;exitDy=0;exitPerimeter=0;" edge="1" parent="1" target="AC03XL_UMfXiCvVsRz3B-38">
          <mxGeometry relative="1" as="geometry">
            <mxPoint x="345.0017274384686" y="364" as="targetPoint" />
            <mxPoint x="508.01" y="421" as="sourcePoint" />
            <Array as="points">
              <mxPoint x="508" y="420" />
              <mxPoint x="650" y="420" />
              <mxPoint x="650" y="364" />
            </Array>
          </mxGeometry>
        </mxCell>
        <mxCell id="AC03XL_UMfXiCvVsRz3B-43" value="Generate/Overwrite CSV" style="edgeLabel;html=1;align=center;verticalAlign=middle;resizable=0;points=[];" vertex="1" connectable="0" parent="AC03XL_UMfXiCvVsRz3B-42">
          <mxGeometry x="-0.5526" y="3" relative="1" as="geometry">
            <mxPoint x="-39" y="4" as="offset" />
          </mxGeometry>
        </mxCell>
        <mxCell id="AC03XL_UMfXiCvVsRz3B-9" value="Lambda Function&lt;div&gt;hw04-zhh20013-2&lt;/div&gt;&lt;div&gt;&lt;br&gt;&lt;/div&gt;" style="sketch=0;points=[[0,0,0],[0.25,0,0],[0.5,0,0],[0.75,0,0],[1,0,0],[0,1,0],[0.25,1,0],[0.5,1,0],[0.75,1,0],[1,1,0],[0,0.25,0],[0,0.5,0],[0,0.75,0],[1,0.25,0],[1,0.5,0],[1,0.75,0]];outlineConnect=0;fontColor=#232F3E;fillColor=#ED7100;strokeColor=#ffffff;dashed=0;verticalLabelPosition=bottom;verticalAlign=top;align=center;html=1;fontSize=12;fontStyle=0;aspect=fixed;shape=mxgraph.aws4.resourceIcon;resIcon=mxgraph.aws4.lambda;" vertex="1" parent="1">
          <mxGeometry x="430" y="378" width="78" height="78" as="geometry" />
        </mxCell>
        <mxCell id="AC03XL_UMfXiCvVsRz3B-29" value="" style="endArrow=none;dashed=1;html=1;rounded=0;exitX=1;exitY=0.75;exitDx=0;exitDy=0;exitPerimeter=0;" edge="1" parent="1" source="AC03XL_UMfXiCvVsRz3B-3" target="AC03XL_UMfXiCvVsRz3B-5">
          <mxGeometry width="50" height="50" relative="1" as="geometry">
            <mxPoint x="510" y="300" as="sourcePoint" />
            <mxPoint x="600" y="300" as="targetPoint" />
            <Array as="points">
              <mxPoint x="560" y="302" />
              <mxPoint x="560" y="350" />
              <mxPoint x="590" y="349" />
            </Array>
          </mxGeometry>
        </mxCell>
        <mxCell id="AC03XL_UMfXiCvVsRz3B-31" value="Log Metadata" style="edgeLabel;html=1;align=center;verticalAlign=middle;resizable=0;points=[];" vertex="1" connectable="0" parent="AC03XL_UMfXiCvVsRz3B-29">
          <mxGeometry x="0.3948" y="1" relative="1" as="geometry">
            <mxPoint x="-16" y="1" as="offset" />
          </mxGeometry>
        </mxCell>
        <mxCell id="AC03XL_UMfXiCvVsRz3B-32" value="&lt;div style=&quot;color: rgb(35, 47, 62); text-wrap-mode: nowrap;&quot;&gt;Partition Key: FileName (String)&lt;/div&gt;&lt;div style=&quot;color: rgb(35, 47, 62); text-wrap-mode: nowrap;&quot;&gt;Sort Key: uploadDate (String)&lt;/div&gt;&lt;div style=&quot;color: rgb(35, 47, 62);&quot;&gt;&lt;font color=&quot;#232f3e&quot;&gt;&lt;span style=&quot;text-wrap-mode: nowrap;&quot;&gt;Attributes: Size, UploadDate, ARN, eTag&lt;/span&gt;&lt;/font&gt;&lt;/div&gt;" style="text;html=1;align=center;verticalAlign=middle;whiteSpace=wrap;rounded=0;" vertex="1" parent="1">
          <mxGeometry x="760" y="74" width="300" height="130" as="geometry" />
        </mxCell>
        <mxCell id="AC03XL_UMfXiCvVsRz3B-36" value="/aws/lambda/hw04-zhh20013-1" style="text;html=1;align=center;verticalAlign=middle;whiteSpace=wrap;rounded=0;" vertex="1" parent="1">
          <mxGeometry x="949" y="334" width="220" height="30" as="geometry" />
        </mxCell>
        <mxCell id="AC03XL_UMfXiCvVsRz3B-55" style="edgeStyle=none;shape=connector;rounded=0;orthogonalLoop=1;jettySize=auto;html=1;dashed=1;strokeColor=default;align=center;verticalAlign=middle;fontFamily=Helvetica;fontSize=11;fontColor=default;labelBackgroundColor=default;endArrow=none;entryX=0;entryY=0.75;entryDx=0;entryDy=0;entryPerimeter=0;" edge="1" parent="1" source="AC03XL_UMfXiCvVsRz3B-38" target="AC03XL_UMfXiCvVsRz3B-3">
          <mxGeometry relative="1" as="geometry">
            <mxPoint x="440" y="350" as="targetPoint" />
            <Array as="points">
              <mxPoint x="440" y="349" />
              <mxPoint x="440" y="302" />
            </Array>
          </mxGeometry>
        </mxCell>
        <mxCell id="AC03XL_UMfXiCvVsRz3B-56" value="Triggers Upload Lambda" style="edgeLabel;html=1;align=center;verticalAlign=middle;resizable=0;points=[];fontFamily=Helvetica;fontSize=11;fontColor=default;labelBackgroundColor=default;" vertex="1" connectable="0" parent="AC03XL_UMfXiCvVsRz3B-55">
          <mxGeometry x="-0.574" y="-1" relative="1" as="geometry">
            <mxPoint x="28" y="-1" as="offset" />
          </mxGeometry>
        </mxCell>
        <mxCell id="AC03XL_UMfXiCvVsRz3B-38" value="CSV File" style="sketch=0;outlineConnect=0;fontColor=#232F3E;gradientColor=none;fillColor=#7AA116;strokeColor=none;dashed=0;verticalLabelPosition=bottom;verticalAlign=top;align=center;html=1;fontSize=12;fontStyle=0;aspect=fixed;pointerEvents=1;shape=mxgraph.aws4.bucket_with_objects;" vertex="1" parent="1">
          <mxGeometry x="210" y="310" width="75" height="78" as="geometry" />
        </mxCell>
        <mxCell id="AC03XL_UMfXiCvVsRz3B-39" value="" style="edgeStyle=none;orthogonalLoop=1;jettySize=auto;html=1;rounded=0;exitX=0.993;exitY=0.785;exitDx=0;exitDy=0;exitPerimeter=0;entryX=0;entryY=0.75;entryDx=0;entryDy=0;entryPerimeter=0;" edge="1" parent="1" target="AC03XL_UMfXiCvVsRz3B-9">
          <mxGeometry width="100" relative="1" as="geometry">
            <mxPoint x="167.69227217014296" y="300" as="sourcePoint" />
            <mxPoint x="420" y="440" as="targetPoint" />
            <Array as="points">
              <mxPoint x="200.41" y="300.5" />
              <mxPoint x="200.41" y="350.5" />
              <mxPoint x="200" y="441.25" />
            </Array>
          </mxGeometry>
        </mxCell>
        <mxCell id="AC03XL_UMfXiCvVsRz3B-41" value="Trigger: &quot;s3:ObjectRemoved:Delete&quot;" style="edgeLabel;html=1;align=center;verticalAlign=middle;resizable=0;points=[];" vertex="1" connectable="0" parent="AC03XL_UMfXiCvVsRz3B-39">
          <mxGeometry x="0.507" y="-1" relative="1" as="geometry">
            <mxPoint x="-23" y="10" as="offset" />
          </mxGeometry>
        </mxCell>
      </root>
    </mxGraphModel>
  </diagram>
</mxfile>
